<mxfile host="app.diagrams.net" agent="Mozilla/5.0 (X11; Linux x86_64; rv:136.0) Gecko/20100101 Firefox/136.0" version="26.2.6">
  <diagram name="Page-1" id="hn2nYV82OSeGGN1lJyDP">
    <mxGraphModel dx="2370" dy="931" grid="1" gridSize="10" guides="1" tooltips="1" connect="1" arrows="1" fold="1" page="1" pageScale="1" pageWidth="850" pageHeight="1100" math="0" shadow="0">
      <root>
        <mxCell id="0" />
        <mxCell id="1" parent="0" />
        <mxCell id="nN4aOU_VxZryEktkk-2I-1" value="" style="verticalLabelPosition=bottom;shadow=0;dashed=0;align=center;html=1;verticalAlign=top;shape=mxgraph.electrical.transmission.optical_fiber2;" parent="1" vertex="1">
          <mxGeometry x="-50" y="279.5" width="110" height="70" as="geometry" />
        </mxCell>
        <mxCell id="nN4aOU_VxZryEktkk-2I-2" value="office building" style="sketch=0;outlineConnect=0;gradientColor=none;fontColor=#545B64;strokeColor=none;fillColor=#879196;dashed=0;verticalLabelPosition=bottom;verticalAlign=top;align=center;html=1;fontSize=12;fontStyle=0;aspect=fixed;shape=mxgraph.aws4.illustration_office_building;pointerEvents=1" parent="1" vertex="1">
          <mxGeometry x="-280" y="278.5" width="100" height="71" as="geometry" />
        </mxCell>
        <mxCell id="nN4aOU_VxZryEktkk-2I-4" value="&lt;font style=&quot;font-size: 21px;&quot;&gt;1: Generation du signal optique&lt;/font&gt;" style="text;html=1;align=center;verticalAlign=middle;resizable=0;points=[];autosize=1;strokeColor=none;fillColor=none;" parent="1" vertex="1">
          <mxGeometry x="-290" y="120" width="310" height="40" as="geometry" />
        </mxCell>
        <mxCell id="nN4aOU_VxZryEktkk-2I-6" value="" style="endArrow=classic;html=1;rounded=0;entryX=0.2;entryY=0.514;entryDx=0;entryDy=0;entryPerimeter=0;" parent="1" source="nN4aOU_VxZryEktkk-2I-7" target="nN4aOU_VxZryEktkk-2I-1" edge="1">
          <mxGeometry width="50" height="50" relative="1" as="geometry">
            <mxPoint x="390" y="460" as="sourcePoint" />
            <mxPoint x="440" y="410" as="targetPoint" />
          </mxGeometry>
        </mxCell>
        <mxCell id="nN4aOU_VxZryEktkk-2I-8" value="" style="endArrow=classic;html=1;rounded=0;entryX=0.2;entryY=0.514;entryDx=0;entryDy=0;entryPerimeter=0;" parent="1" source="nN4aOU_VxZryEktkk-2I-2" target="nN4aOU_VxZryEktkk-2I-7" edge="1">
          <mxGeometry width="50" height="50" relative="1" as="geometry">
            <mxPoint x="-180" y="286" as="sourcePoint" />
            <mxPoint x="-68" y="286" as="targetPoint" />
          </mxGeometry>
        </mxCell>
        <mxCell id="nN4aOU_VxZryEktkk-2I-7" value="" style="shape=image;html=1;verticalAlign=top;verticalLabelPosition=bottom;labelBackgroundColor=#ffffff;imageAspect=0;aspect=fixed;image=https://cdn1.iconfinder.com/data/icons/bootstrap-vol-3/16/lamp-128.png" parent="1" vertex="1">
          <mxGeometry x="-145" y="274.5" width="80" height="80" as="geometry" />
        </mxCell>
        <mxCell id="nN4aOU_VxZryEktkk-2I-9" value="&lt;font style=&quot;font-size: 16px;&quot;&gt;Conversion electrique -&amp;gt; optique&lt;/font&gt;" style="text;html=1;align=center;verticalAlign=middle;resizable=0;points=[];autosize=1;strokeColor=none;fillColor=none;" parent="1" vertex="1">
          <mxGeometry x="-160" y="240" width="250" height="30" as="geometry" />
        </mxCell>
        <mxCell id="nN4aOU_VxZryEktkk-2I-10" value="&lt;font style=&quot;font-size: 20px;&quot;&gt;OLT&lt;/font&gt;" style="text;html=1;align=center;verticalAlign=middle;resizable=0;points=[];autosize=1;strokeColor=none;fillColor=none;" parent="1" vertex="1">
          <mxGeometry x="-280" y="240" width="60" height="40" as="geometry" />
        </mxCell>
        <mxCell id="nN4aOU_VxZryEktkk-2I-11" value="" style="shape=flexArrow;endArrow=classic;html=1;rounded=0;exitX=0.818;exitY=0.55;exitDx=0;exitDy=0;exitPerimeter=0;" parent="1" source="nN4aOU_VxZryEktkk-2I-1" edge="1">
          <mxGeometry width="50" height="50" relative="1" as="geometry">
            <mxPoint x="390" y="460" as="sourcePoint" />
            <mxPoint x="340" y="320" as="targetPoint" />
          </mxGeometry>
        </mxCell>
        <mxCell id="nN4aOU_VxZryEktkk-2I-12" value="&lt;font style=&quot;font-size: 16px;&quot;&gt;2&lt;/font&gt;: &lt;font style=&quot;font-size: 16px;&quot;&gt;Transmisison via fibre optique&lt;/font&gt;" style="text;html=1;align=center;verticalAlign=middle;resizable=0;points=[];autosize=1;strokeColor=none;fillColor=none;" parent="1" vertex="1">
          <mxGeometry x="60" y="324.5" width="250" height="30" as="geometry" />
        </mxCell>
        <mxCell id="nN4aOU_VxZryEktkk-2I-13" value="" style="verticalLabelPosition=bottom;shadow=0;dashed=0;align=center;html=1;verticalAlign=top;shape=mxgraph.electrical.abstract.amplifier;" parent="1" vertex="1">
          <mxGeometry x="340" y="270" width="90" height="100" as="geometry" />
        </mxCell>
        <mxCell id="nN4aOU_VxZryEktkk-2I-14" value="&lt;font style=&quot;font-size: 16px;&quot;&gt;Emplifie le signal sur longue distance&lt;/font&gt;" style="text;html=1;align=center;verticalAlign=middle;resizable=0;points=[];autosize=1;strokeColor=none;fillColor=none;" parent="1" vertex="1">
          <mxGeometry x="205" y="248.5" width="290" height="30" as="geometry" />
        </mxCell>
        <mxCell id="nN4aOU_VxZryEktkk-2I-15" value="" style="endArrow=classic;html=1;rounded=0;exitX=1;exitY=0.5;exitDx=0;exitDy=0;exitPerimeter=0;" parent="1" source="nN4aOU_VxZryEktkk-2I-13" target="nN4aOU_VxZryEktkk-2I-18" edge="1">
          <mxGeometry width="50" height="50" relative="1" as="geometry">
            <mxPoint x="390" y="460" as="sourcePoint" />
            <mxPoint x="440" y="410" as="targetPoint" />
          </mxGeometry>
        </mxCell>
        <mxCell id="nN4aOU_VxZryEktkk-2I-16" value="&lt;font style=&quot;font-size: 21px;&quot;&gt;3: Composants actifs dans le reseaux.&lt;/font&gt;" style="text;html=1;align=center;verticalAlign=middle;resizable=0;points=[];autosize=1;strokeColor=none;fillColor=none;" parent="1" vertex="1">
          <mxGeometry x="290" y="180" width="380" height="40" as="geometry" />
        </mxCell>
        <mxCell id="nN4aOU_VxZryEktkk-2I-18" value="" style="shape=mxgraph.cisco.switches.layer_2_remote_switch;html=1;pointerEvents=1;dashed=0;fillColor=#036897;strokeColor=#ffffff;strokeWidth=2;verticalLabelPosition=bottom;verticalAlign=top;align=center;outlineConnect=0;" parent="1" vertex="1">
          <mxGeometry x="569" y="295" width="101" height="50" as="geometry" />
        </mxCell>
        <mxCell id="nN4aOU_VxZryEktkk-2I-19" value="" style="image;aspect=fixed;perimeter=ellipsePerimeter;html=1;align=center;shadow=0;dashed=0;spacingTop=3;image=img/lib/active_directory/home.svg;" parent="1" vertex="1">
          <mxGeometry x="840" y="120" width="50" height="48.5" as="geometry" />
        </mxCell>
        <mxCell id="nN4aOU_VxZryEktkk-2I-20" value="" style="image;aspect=fixed;perimeter=ellipsePerimeter;html=1;align=center;shadow=0;dashed=0;spacingTop=3;image=img/lib/active_directory/home.svg;" parent="1" vertex="1">
          <mxGeometry x="840" y="200" width="50" height="48.5" as="geometry" />
        </mxCell>
        <mxCell id="nN4aOU_VxZryEktkk-2I-21" value="" style="image;aspect=fixed;perimeter=ellipsePerimeter;html=1;align=center;shadow=0;dashed=0;spacingTop=3;image=img/lib/active_directory/home.svg;" parent="1" vertex="1">
          <mxGeometry x="840" y="290.25" width="50" height="48.5" as="geometry" />
        </mxCell>
        <mxCell id="nN4aOU_VxZryEktkk-2I-22" value="" style="image;aspect=fixed;perimeter=ellipsePerimeter;html=1;align=center;shadow=0;dashed=0;spacingTop=3;image=img/lib/active_directory/home.svg;" parent="1" vertex="1">
          <mxGeometry x="840" y="370" width="50" height="48.5" as="geometry" />
        </mxCell>
        <mxCell id="nN4aOU_VxZryEktkk-2I-24" value="" style="endArrow=classic;html=1;rounded=0;" parent="1" source="nN4aOU_VxZryEktkk-2I-18" target="nN4aOU_VxZryEktkk-2I-19" edge="1">
          <mxGeometry width="50" height="50" relative="1" as="geometry">
            <mxPoint x="390" y="460" as="sourcePoint" />
            <mxPoint x="440" y="410" as="targetPoint" />
          </mxGeometry>
        </mxCell>
        <mxCell id="nN4aOU_VxZryEktkk-2I-25" value="" style="endArrow=classic;html=1;rounded=0;" parent="1" target="nN4aOU_VxZryEktkk-2I-20" edge="1">
          <mxGeometry width="50" height="50" relative="1" as="geometry">
            <mxPoint x="664" y="305" as="sourcePoint" />
            <mxPoint x="855" y="169" as="targetPoint" />
          </mxGeometry>
        </mxCell>
        <mxCell id="nN4aOU_VxZryEktkk-2I-26" value="" style="endArrow=classic;html=1;rounded=0;" parent="1" target="nN4aOU_VxZryEktkk-2I-21" edge="1">
          <mxGeometry width="50" height="50" relative="1" as="geometry">
            <mxPoint x="674" y="315" as="sourcePoint" />
            <mxPoint x="865" y="179" as="targetPoint" />
          </mxGeometry>
        </mxCell>
        <mxCell id="nN4aOU_VxZryEktkk-2I-28" value="" style="endArrow=classic;html=1;rounded=0;" parent="1" target="nN4aOU_VxZryEktkk-2I-22" edge="1">
          <mxGeometry width="50" height="50" relative="1" as="geometry">
            <mxPoint x="684" y="325" as="sourcePoint" />
            <mxPoint x="875" y="189" as="targetPoint" />
          </mxGeometry>
        </mxCell>
        <mxCell id="nN4aOU_VxZryEktkk-2I-29" value="Routage dynamique des reseaux" style="text;html=1;align=center;verticalAlign=middle;resizable=0;points=[];autosize=1;strokeColor=none;fillColor=none;" parent="1" vertex="1">
          <mxGeometry x="530" y="354.5" width="200" height="30" as="geometry" />
        </mxCell>
        <mxCell id="nN4aOU_VxZryEktkk-2I-30" value="&lt;font style=&quot;font-size: 16px;&quot;&gt;ONU&lt;/font&gt;" style="text;html=1;align=center;verticalAlign=middle;resizable=0;points=[];autosize=1;strokeColor=none;fillColor=none;" parent="1" vertex="1">
          <mxGeometry x="890" y="129.25" width="60" height="30" as="geometry" />
        </mxCell>
        <mxCell id="nN4aOU_VxZryEktkk-2I-31" value="&lt;font style=&quot;font-size: 16px;&quot;&gt;ONU&lt;/font&gt;" style="text;whiteSpace=wrap;html=1;" parent="1" vertex="1">
          <mxGeometry x="890" y="204.25" width="70" height="40" as="geometry" />
        </mxCell>
        <mxCell id="nN4aOU_VxZryEktkk-2I-32" value="&lt;font style=&quot;font-size: 16px;&quot;&gt;ONU&lt;/font&gt;" style="text;whiteSpace=wrap;html=1;" parent="1" vertex="1">
          <mxGeometry x="890" y="298.75" width="70" height="40" as="geometry" />
        </mxCell>
        <mxCell id="nN4aOU_VxZryEktkk-2I-33" value="&lt;font style=&quot;font-size: 16px;&quot;&gt;ONU&lt;/font&gt;" style="text;whiteSpace=wrap;html=1;" parent="1" vertex="1">
          <mxGeometry x="890" y="378.5" width="70" height="40" as="geometry" />
        </mxCell>
        <mxCell id="nN4aOU_VxZryEktkk-2I-35" value="&lt;font style=&quot;font-size: 21px;&quot;&gt;4: Reception et conversion signal lumineux -&amp;gt; electrique&lt;/font&gt;" style="text;html=1;align=center;verticalAlign=middle;resizable=0;points=[];autosize=1;strokeColor=none;fillColor=none;" parent="1" vertex="1">
          <mxGeometry x="590" y="70" width="540" height="40" as="geometry" />
        </mxCell>
        <mxCell id="_yS0cU8LAQjPu_tL_m_l-1" value="&lt;div&gt;&lt;font style=&quot;font-size: 21px;&quot;&gt;Protocoles:&lt;/font&gt;&lt;/div&gt;&lt;div&gt;&lt;font style=&quot;font-size: 21px;&quot;&gt;-Ethernet&lt;/font&gt;&lt;/div&gt;&lt;div&gt;&lt;font style=&quot;font-size: 21px;&quot;&gt;-WDM&lt;/font&gt;&lt;/div&gt;&lt;div&gt;&lt;font style=&quot;font-size: 21px;&quot;&gt;-TDM&lt;/font&gt;&lt;/div&gt;" style="text;html=1;align=center;verticalAlign=middle;resizable=0;points=[];autosize=1;strokeColor=none;fillColor=none;" vertex="1" parent="1">
          <mxGeometry x="800" y="440" width="130" height="110" as="geometry" />
        </mxCell>
      </root>
    </mxGraphModel>
  </diagram>
</mxfile>
